<svg width="246" height="68" viewBox="0 0 246 68" fill="none" xmlns="http://www.w3.org/2000/svg">
<path d="M39.172 47.66C38.1747 47.66 37.3387 47.3813 36.664 46.824C35.9893 46.2667 35.652 45.504 35.652 44.536V22.756C35.652 22.2867 35.6227 21.7293 35.564 21.084C35.5347 20.4387 35.4613 19.764 35.344 19.06C35.2267 18.356 35.036 17.6813 34.772 17.036C35.7107 16.596 36.8547 16.2587 38.204 16.024C39.5533 15.7893 41.1373 15.672 42.956 15.672C47.2387 15.672 50.5387 16.376 52.856 17.784C55.2027 19.192 56.376 21.524 56.376 24.78C56.376 28.0653 55.2027 30.6173 52.856 32.436C50.5093 34.2253 47.1653 35.12 42.824 35.12C42.5307 35.12 42.2373 35.12 41.944 35.12C41.6507 35.12 41.3427 35.1053 41.02 35.076L40.712 32.964C41.0053 32.9933 41.284 33.0227 41.548 33.052C41.8413 33.052 42.164 33.052 42.516 33.052C44.3347 33.052 45.7573 32.7147 46.784 32.04C47.8107 31.3653 48.544 30.4413 48.984 29.268C49.424 28.0947 49.644 26.7453 49.644 25.22C49.644 23.7533 49.4387 22.4627 49.028 21.348C48.6173 20.2333 47.928 19.368 46.96 18.752C46.0213 18.1067 44.7307 17.784 43.088 17.784C42.8533 17.784 42.6187 17.784 42.384 17.784C42.1787 17.784 41.988 17.7987 41.812 17.828V40.928C41.812 41.3973 41.8267 41.94 41.856 42.556C41.9147 43.172 42.0027 43.8027 42.12 44.448C42.2373 45.064 42.428 45.68 42.692 46.296C42.428 46.5307 41.988 46.8093 41.372 47.132C40.756 47.484 40.0227 47.66 39.172 47.66ZM64.3812 47.484C63.4719 47.484 62.6506 47.1907 61.9172 46.604C61.2132 45.988 60.8612 45.1373 60.8612 44.052V30.456C60.8612 29.6053 60.7586 29.004 60.5532 28.652C60.3772 28.3 60.0986 28.124 59.7172 28.124C59.5706 28.124 59.3799 28.1533 59.1452 28.212C58.9106 28.2707 58.7199 28.4173 58.5732 28.652C58.1919 28.0653 58.0012 27.4347 58.0012 26.76C58.0012 25.8507 58.3092 25.1027 58.9252 24.516C59.5412 23.9293 60.4359 23.636 61.6092 23.636C63.0172 23.636 64.1319 24.1347 64.9532 25.132C65.8039 26.1293 66.1999 27.6693 66.1412 29.752V30.896L65.6132 30.456C66.0239 28.1387 66.7426 26.4227 67.7693 25.308C68.8252 24.1933 70.2039 23.636 71.9053 23.636C73.5773 23.636 74.9413 24.0907 75.9973 25C77.0826 25.88 77.6253 27.112 77.6253 28.696C77.6253 29.84 77.2733 30.7933 76.5692 31.556C75.8653 32.2893 74.9853 32.6707 73.9292 32.7C72.6386 32.7 71.7146 32.3773 71.1572 31.732C71.4799 31.1453 71.6853 30.6467 71.7732 30.236C71.8906 29.796 71.9493 29.2827 71.9493 28.696C71.9493 27.9627 71.8026 27.4053 71.5093 27.024C71.2159 26.6133 70.7612 26.408 70.1452 26.408C69.4706 26.408 68.8839 26.7893 68.3853 27.552C67.8866 28.2853 67.5052 29.4147 67.2412 30.94C66.9772 32.4653 66.8452 34.372 66.8452 36.66C66.8452 38.0387 66.8452 39.212 66.8452 40.18C66.8746 41.1187 66.9186 41.9253 66.9772 42.6C67.0359 43.2747 67.1239 43.8907 67.2412 44.448C67.3879 45.0053 67.5932 45.5773 67.8572 46.164C67.5932 46.3987 67.1532 46.6773 66.5372 47C65.9506 47.2933 65.2319 47.4547 64.3812 47.484ZM89.4176 47.616C85.9856 47.616 83.3163 46.56 81.4096 44.448C79.5029 42.336 78.5496 39.4027 78.5496 35.648C78.5496 31.864 79.5029 28.916 81.4096 26.804C83.3163 24.692 85.9856 23.636 89.4176 23.636C92.8496 23.636 95.5189 24.692 97.4256 26.804C99.3323 28.916 100.286 31.864 100.286 35.648C100.286 39.4027 99.3323 42.336 97.4256 44.448C95.5189 46.56 92.8496 47.616 89.4176 47.616ZM89.4176 45.592C90.9136 45.592 92.0136 44.756 92.7176 43.084C93.4216 41.412 93.7736 38.9333 93.7736 35.648C93.7736 32.3333 93.4216 29.84 92.7176 28.168C92.0136 26.496 90.9136 25.66 89.4176 25.66C87.8923 25.66 86.7776 26.496 86.0736 28.168C85.3696 29.84 85.0176 32.3333 85.0176 35.648C85.0176 38.9333 85.3696 41.412 86.0736 43.084C86.7776 44.756 87.8923 45.592 89.4176 45.592ZM113.993 47.616C110.414 47.616 107.657 46.5747 105.721 44.492C103.785 42.38 102.817 39.4027 102.817 35.56C102.817 31.864 103.785 28.96 105.721 26.848C107.686 24.7067 110.487 23.636 114.125 23.636C116.911 23.636 118.965 24.1933 120.285 25.308C121.605 26.4227 122.265 27.7427 122.265 29.268C122.265 30.4707 121.869 31.424 121.077 32.128C120.314 32.832 119.331 33.184 118.129 33.184C117.542 33.184 116.955 33.096 116.369 32.92C115.782 32.744 115.327 32.48 115.005 32.128C115.415 31.7173 115.723 31.248 115.929 30.72C116.134 30.1627 116.237 29.5027 116.237 28.74C116.237 27.9773 116.119 27.376 115.885 26.936C115.679 26.4667 115.386 26.144 115.005 25.968C114.623 25.7627 114.169 25.66 113.641 25.66C112.291 25.66 111.221 26.4373 110.429 27.992C109.666 29.5467 109.285 31.7467 109.285 34.592C109.285 36.7627 109.534 38.5373 110.033 39.916C110.561 41.2653 111.309 42.2627 112.277 42.908C113.274 43.5533 114.462 43.876 115.841 43.876C116.897 43.876 117.821 43.7 118.613 43.348C119.434 42.996 120.109 42.5267 120.637 41.94C121.165 41.324 121.531 40.6493 121.737 39.916C122.059 40.0333 122.279 40.312 122.397 40.752C122.543 41.1627 122.514 41.7933 122.309 42.644C121.898 44.1987 120.945 45.416 119.449 46.296C117.953 47.176 116.134 47.616 113.993 47.616ZM132.371 47.44C130.582 47.44 129.218 46.8827 128.279 45.768C127.341 44.624 126.871 43.084 126.871 41.148V21.48C126.871 20.512 127.194 19.764 127.839 19.236C128.514 18.6787 129.35 18.4 130.347 18.4C131.227 18.4 131.961 18.5613 132.547 18.884C133.134 19.2067 133.545 19.4853 133.779 19.72C133.398 21.128 133.149 22.448 133.031 23.68C132.943 24.912 132.899 26.4373 132.899 28.256V40.62C132.899 41.3827 133.061 41.9693 133.383 42.38C133.735 42.7613 134.234 42.952 134.879 42.952C135.173 42.952 135.495 42.908 135.847 42.82C136.229 42.732 136.478 42.5853 136.595 42.38C136.83 42.6733 136.991 42.996 137.079 43.348C137.167 43.7 137.211 44.008 137.211 44.272C137.211 45.1813 136.771 45.944 135.891 46.56C135.041 47.1467 133.867 47.44 132.371 47.44ZM123.571 27.156L123.615 25.704C123.645 25.2053 123.806 24.8533 124.099 24.648C124.422 24.4133 124.789 24.296 125.199 24.296H132.855C132.973 24.296 133.281 24.296 133.779 24.296C134.307 24.2667 134.894 24.252 135.539 24.252C136.214 24.2227 136.801 24.208 137.299 24.208C137.827 24.1787 138.15 24.1493 138.267 24.12L138.223 25.528C138.194 25.9973 138.033 26.364 137.739 26.628C137.446 26.8627 137.094 26.98 136.683 26.98H126.211C125.918 26.98 125.478 26.9947 124.891 27.024C124.305 27.0533 123.865 27.0973 123.571 27.156ZM150.059 47.616C146.627 47.616 143.957 46.56 142.051 44.448C140.144 42.336 139.191 39.4027 139.191 35.648C139.191 31.864 140.144 28.916 142.051 26.804C143.957 24.692 146.627 23.636 150.059 23.636C153.491 23.636 156.16 24.692 158.067 26.804C159.973 28.916 160.927 31.864 160.927 35.648C160.927 39.4027 159.973 42.336 158.067 44.448C156.16 46.56 153.491 47.616 150.059 47.616ZM150.059 45.592C151.555 45.592 152.655 44.756 153.359 43.084C154.063 41.412 154.415 38.9333 154.415 35.648C154.415 32.3333 154.063 29.84 153.359 28.168C152.655 26.496 151.555 25.66 150.059 25.66C148.533 25.66 147.419 26.496 146.715 28.168C146.011 29.84 145.659 32.3333 145.659 35.648C145.659 38.9333 146.011 41.412 146.715 43.084C147.419 44.756 148.533 45.592 150.059 45.592ZM169.002 47.484C168.092 47.484 167.271 47.1907 166.538 46.604C165.834 45.988 165.482 45.1373 165.482 44.052V30.456C165.482 29.6053 165.379 29.004 165.174 28.652C164.998 28.3 164.719 28.124 164.338 28.124C164.191 28.124 164 28.1533 163.766 28.212C163.531 28.2707 163.34 28.4173 163.194 28.652C162.812 28.0653 162.622 27.4347 162.622 26.76C162.622 25.8507 162.93 25.1027 163.546 24.516C164.162 23.9293 165.056 23.636 166.23 23.636C167.638 23.636 168.752 24.1347 169.574 25.132C170.424 26.1293 170.82 27.6693 170.762 29.752V30.896L170.234 30.456C170.644 28.1387 171.363 26.4227 172.39 25.308C173.446 24.1933 174.824 23.636 176.526 23.636C178.198 23.636 179.562 24.0907 180.618 25C181.703 25.88 182.246 27.112 182.246 28.696C182.246 29.84 181.894 30.7933 181.19 31.556C180.486 32.2893 179.606 32.6707 178.55 32.7C177.259 32.7 176.335 32.3773 175.778 31.732C176.1 31.1453 176.306 30.6467 176.394 30.236C176.511 29.796 176.57 29.2827 176.57 28.696C176.57 27.9627 176.423 27.4053 176.13 27.024C175.836 26.6133 175.382 26.408 174.766 26.408C174.091 26.408 173.504 26.7893 173.006 27.552C172.507 28.2853 172.126 29.4147 171.862 30.94C171.598 32.4653 171.466 34.372 171.466 36.66C171.466 38.0387 171.466 39.212 171.466 40.18C171.495 41.1187 171.539 41.9253 171.598 42.6C171.656 43.2747 171.744 43.8907 171.862 44.448C172.008 45.0053 172.214 45.5773 172.478 46.164C172.214 46.3987 171.774 46.6773 171.158 47C170.571 47.2933 169.852 47.4547 169.002 47.484ZM188.302 21.656C187.334 21.656 186.513 21.3333 185.838 20.688C185.193 20.0133 184.87 19.2067 184.87 18.268C184.87 17.3 185.193 16.4933 185.838 15.848C186.513 15.1733 187.334 14.836 188.302 14.836C189.241 14.836 190.033 15.1733 190.678 15.848C191.353 16.4933 191.69 17.3 191.69 18.268C191.69 19.2067 191.353 20.0133 190.678 20.688C190.033 21.3333 189.241 21.656 188.302 21.656ZM191.514 40.576C191.514 41.3973 191.558 42.3213 191.646 43.348C191.764 44.3453 192.013 45.328 192.394 46.296C192.13 46.5307 191.69 46.8093 191.074 47.132C190.488 47.484 189.769 47.66 188.918 47.66C187.98 47.66 187.173 47.3813 186.498 46.824C185.853 46.2667 185.53 45.504 185.53 44.536V30.676C185.53 29.8253 185.472 28.9013 185.354 27.904C185.266 26.9067 185.032 25.9093 184.65 24.912C184.914 24.6773 185.34 24.3987 185.926 24.076C186.513 23.7533 187.217 23.592 188.038 23.592C189.036 23.592 189.857 23.8707 190.502 24.428C191.148 24.956 191.47 25.7187 191.47 26.716L191.514 40.576ZM201.037 47.66C200.01 47.66 199.159 47.352 198.485 46.736C197.81 46.12 197.473 45.284 197.473 44.228V30.456C197.443 29.6053 197.341 29.004 197.165 28.652C196.989 28.3 196.71 28.124 196.329 28.124C196.182 28.124 195.991 28.1533 195.757 28.212C195.522 28.2707 195.331 28.4173 195.185 28.652C194.803 28.0653 194.613 27.4347 194.613 26.76C194.613 25.8507 194.921 25.1027 195.537 24.516C196.153 23.9293 197.047 23.636 198.221 23.636C199.599 23.636 200.699 24.1053 201.521 25.044C202.342 25.9827 202.753 27.42 202.753 29.356V30.676L202.005 32.04C202.239 30.28 202.665 28.784 203.281 27.552C203.926 26.2907 204.806 25.3227 205.921 24.648C207.035 23.9733 208.414 23.636 210.057 23.636C212.491 23.636 214.281 24.3693 215.425 25.836C216.569 27.3027 217.141 29.5027 217.141 32.436V40.576C217.17 41.2213 217.229 42.1013 217.317 43.216C217.434 44.3013 217.683 45.328 218.065 46.296C217.654 46.6773 217.155 47 216.569 47.264C216.011 47.528 215.351 47.66 214.589 47.66C213.591 47.66 212.755 47.3813 212.081 46.824C211.435 46.2667 211.113 45.504 211.113 44.536V33.404C211.083 31.2627 210.878 29.6053 210.497 28.432C210.115 27.2293 209.279 26.628 207.989 26.628C207.314 26.628 206.698 26.8333 206.141 27.244C205.583 27.6547 205.099 28.2853 204.689 29.136C204.307 29.9573 203.999 30.9987 203.765 32.26C203.559 33.5213 203.457 34.988 203.457 36.66C203.457 38.0973 203.457 39.3 203.457 40.268C203.486 41.236 203.53 42.072 203.589 42.776C203.647 43.4507 203.735 44.0667 203.853 44.624C203.999 45.1813 204.205 45.7533 204.469 46.34C204.205 46.5747 203.765 46.8533 203.149 47.176C202.562 47.4987 201.858 47.66 201.037 47.66ZM229.456 56.856C227.989 56.856 226.611 56.68 225.32 56.328C224.029 56.0053 222.988 55.4627 222.196 54.7C221.433 53.9667 221.052 52.9987 221.052 51.796C221.052 50.6813 221.433 49.7867 222.196 49.112C222.988 48.4373 223.985 48.1 225.188 48.1C226.508 48.1 227.432 48.4373 227.96 49.112C227.52 49.4933 227.183 49.948 226.948 50.476C226.743 51.004 226.64 51.5613 226.64 52.148C226.64 52.676 226.743 53.16 226.948 53.6C227.153 54.04 227.476 54.392 227.916 54.656C228.356 54.92 228.928 55.052 229.632 55.052C231.48 55.052 232.859 54.2013 233.768 52.5C234.707 50.7987 235.176 48.5987 235.176 45.9C235.176 45.4893 235.176 44.976 235.176 44.36C235.176 43.7147 235.191 43.128 235.22 42.6C234.721 43.9787 233.915 45.0493 232.8 45.812C231.715 46.5453 230.351 46.912 228.708 46.912C227.183 46.912 225.819 46.56 224.616 45.856C223.443 45.152 222.519 44.008 221.844 42.424C221.199 40.8107 220.876 38.684 220.876 36.044C220.876 34.6067 220.993 33.2573 221.228 31.996C221.492 30.7347 221.888 29.5907 222.416 28.564C222.944 27.5373 223.619 26.6573 224.44 25.924C225.291 25.1907 226.317 24.6333 227.52 24.252C228.723 23.8413 230.116 23.636 231.7 23.636C232.991 23.636 234.208 23.7533 235.352 23.988C236.525 24.2227 237.611 24.56 238.608 25C239.605 25.4107 240.456 25.924 241.16 26.54V45.064C241.16 47.968 240.647 50.2853 239.62 52.016C238.623 53.7467 237.244 54.9787 235.484 55.712C233.724 56.4747 231.715 56.856 229.456 56.856ZM230.556 44.14C231.319 44.14 231.979 43.964 232.536 43.612C233.093 43.2307 233.563 42.7027 233.944 42.028C234.325 41.324 234.619 40.4733 234.824 39.476C235.029 38.4493 235.132 37.3053 235.132 36.044L235.176 26.584C234.795 26.2907 234.325 26.0707 233.768 25.924C233.211 25.748 232.639 25.66 232.052 25.66C231.084 25.66 230.292 25.9093 229.676 26.408C229.06 26.9067 228.576 27.6253 228.224 28.564C227.901 29.5027 227.667 30.6613 227.52 32.04C227.373 33.3893 227.3 34.9293 227.3 36.66C227.3 39.4173 227.52 41.3533 227.96 42.468C228.429 43.5827 229.295 44.14 230.556 44.14Z" fill="#0B412B"/>
<path d="M24.6066 48.896C21.3199 49.7767 18.4154 49.4769 15.893 47.9966C13.3913 46.4804 11.6432 43.8665 10.6486 40.1547C9.69203 36.5847 9.87544 33.5291 11.1988 30.988C12.5147 28.4185 14.9293 26.6631 18.4427 25.7217C20.086 25.2814 21.6239 25.1274 23.0563 25.2598C24.5171 25.3847 25.759 25.8263 26.7822 26.5847C27.8261 27.3071 28.5416 28.3908 28.9288 29.8359C29.4906 31.9326 29.0733 33.7754 27.677 35.3642C26.273 36.9248 24.2252 38.0657 21.5335 38.7869C20.4002 39.0906 19.1742 39.3887 17.8557 39.6813C16.5579 39.9379 15.1088 40.0833 13.5084 40.1173L13.2115 38.3292C13.8217 38.2264 14.4498 38.1341 15.096 38.052C15.7704 37.9624 16.5789 37.8065 17.5215 37.5843C18.1449 37.4173 18.7993 37.1964 19.4849 36.9216C20.1988 36.6392 20.8361 36.2407 21.3966 35.726C21.9496 35.1831 22.3295 34.5043 22.5364 33.6897C22.764 32.8391 22.7108 31.7905 22.3768 30.5438C22.1186 29.5804 21.7975 28.8921 21.4135 28.4787C21.0218 28.0371 20.5869 27.774 20.1087 27.6895C19.6589 27.5975 19.2073 27.6122 18.754 27.7337C17.3656 28.1057 16.4836 29.1771 16.1078 30.9481C15.7603 32.7114 15.9548 34.9673 16.6913 37.7157C17.2758 39.8974 17.9836 41.5754 18.8145 42.7497C19.6378 43.8956 20.5929 44.6267 21.6798 44.9428C22.759 45.2306 23.9645 45.1961 25.2962 44.8393C26.8829 44.4141 28.0886 43.757 28.9132 42.868C29.7662 41.9713 30.3017 41.0231 30.5197 40.0232C30.8617 40.0531 31.1388 40.237 31.3508 40.5749C31.5912 40.9053 31.6618 41.5089 31.5627 42.3858C31.3964 43.9184 30.6932 45.2608 29.4531 46.413C28.2338 47.5293 26.6183 48.3569 24.6066 48.896Z" fill="#2DDA92"/>
</svg>
